<svg xmlns="http://www.w3.org/2000/svg" width="800" height="600" viewBox="0 0 800 600"><path d="M135.667 359.667a5.999 5.999 0 01-5.449-3.488L82.885 253.512a6 6 0 0110.898-5.024l41.885 90.848 41.884-90.848a6 6 0 0110.898 5.024l-47.333 102.667a6.001 6.001 0 01-5.45 3.488zm75.005.564c-2.242 0-4.24-.241-5.776-.583-15.9-3.539-27.107-14.81-27.886-28.046a58.035 58.035 0 01.021-6.988 6.007 6.007 0 01.182-2.207c.716-6.99 2.955-15.726 9.104-22.297 5.69-6.081 13.53-9.202 23.303-9.277 8.171-.052 14.903 2.488 20.031 7.578 9.249 9.184 9.349 23.328 9.348 23.925a6 6 0 01-5.8 5.994l-44.259 1.475c.013.421.031.788.049 1.092.529 8.992 9.968 15.136 18.514 17.038 2.477.55 10.334.936 13.824-4.347a6.001 6.001 0 0110.012 6.615c-5.224 7.907-14.018 10.028-20.667 10.028zm-.78-57.231h-.179c-6.444 0-11.231 1.758-14.633 5.393-2.476 2.646-3.979 6.011-4.881 9.406l36.057-1.139c-1.375-5.793-5.282-13.66-16.364-13.66zm56.911 56.744a16.41 16.41 0 01-3.033-.283c-7.368-1.393-13.014-7.553-14.02-12.462-.916-4.47.005-57.628.571-86.089l-7.931-.071c-3.313-.03-5.976-2.66-5.946-5.973.03-3.295 2.71-5.866 5.999-5.866h.055l13.999.045c1.604.015 3.134.63 4.251 1.78a5.953 5.953 0 011.694 4.283c-.65 31.609-1.462 83.115-.93 89.4.519.963 2.604 3.01 4.899 3.225 2.671.245 5.019-2.446 6.515-4.751a6.001 6.001 0 018.299-1.769 6.001 6.001 0 011.766 8.3c-5.441 8.383-11.715 10.231-16.188 10.231zm22.818-50.546a6 6 0 01-.423-11.985l33.413-2.396a6 6 0 11.858 11.97l-33.413 2.396c-.146.01-.291.015-.435.015z" fill="#039"/><path d="M315.037 360.078c-1.568 0-3.084-.214-4.546-.643-7.291-2.139-9.857-8.64-10.125-9.374a5.989 5.989 0 01-.365-2.062v-68a6 6 0 0112 0v66.518c.374.521 1.01 1.177 1.953 1.427 1.158.309 4.589.462 11.419-4.723a6 6 0 117.256 9.556c-6.398 4.859-12.294 7.301-17.592 7.301zM355 360a6 6 0 01-6-6v-41h-4a6 6 0 010-12h10a6 6 0 016 6v47a6 6 0 01-6 6zm-11.789-67.391a6 6 0 01-3.358-10.976l21.589-14.55a6 6 0 116.706 9.952l-21.589 14.55a5.983 5.983 0 01-3.348 1.024z" fill="#039"/><path d="M421.334 360C399.645 360 382 342.355 382 320.667s17.645-39.333 39.334-39.333c21.688 0 39.333 17.645 39.333 39.333S443.022 360 421.334 360zm0-66.667c-15.072 0-27.334 12.262-27.334 27.333S406.262 348 421.334 348c15.071 0 27.333-12.262 27.333-27.333s-12.262-27.334-27.333-27.334zm142 66.667C541.646 360 524 342.355 524 320.667s17.646-39.333 39.334-39.333 39.333 17.645 39.333 39.333S585.022 360 563.334 360zm0-66.667c-15.072 0-27.334 12.262-27.334 27.333S548.262 348 563.334 348c15.071 0 27.333-12.262 27.333-27.333s-12.262-27.334-27.333-27.334zM485.7 360.201c-1.358 0-2.705-.088-4.024-.27-7.64-1.052-13.559-5.077-16.664-11.335a5.999 5.999 0 012.706-8.042 6 6 0 018.042 2.706c1.323 2.666 3.864 4.275 7.553 4.783 6.15.845 13.204-1.813 15.927-4.831.456-.505.142-1.489-.016-1.889-.822-2.102-3.37-4.377-7.208-4.723-7.729-.693-14.965-4.089-18.883-8.861-2.291-2.79-3.33-5.868-3.006-8.901.655-6.151 9.701-14.342 18.614-16.851 8.858-2.496 16.872.218 22.566 7.634a6 6 0 01-9.517 7.309c-2.266-2.951-4.816-4.146-8-3.758-5.127.621-9.894 4.811-11.442 6.91 1.134 1.449 4.878 4.041 10.742 4.567 7.866.707 14.66 5.535 17.309 12.298 2.021 5.161 1.178 10.509-2.253 14.307-4.944 5.478-13.909 8.947-22.446 8.947z"/><path d="M628.33 360a5.999 5.999 0 01-5.991-5.767c-.014-.347-1.329-34.923.001-63.9.886-19.276 4.381-29.869 11.335-34.348 4.307-2.773 9.538-2.961 15.554-.556a6 6 0 11-4.457 11.141c-2.197-.879-3.745-1.046-4.599-.498-1.138.733-4.922 4.688-5.845 24.811-1.308 28.475-.012 62.542.001 62.883A6 6 0 01628.33 360z" fill="#039"/><path d="M652.005 296c-.102 0-.202-.002-.305-.007l-40-2a6 6 0 01-5.692-6.292c.165-3.31 2.983-5.84 6.292-5.693l40 2a6 6 0 01-.295 11.992zm50.335 15a5.79 5.79 0 01-.347-.01l-37.334-2.123c-3.309-.188-5.838-3.022-5.649-6.331s3.021-5.853 6.331-5.649l37.334 2.123a5.998 5.998 0 015.649 6.331A6 6 0 01702.34 311z" fill="#039"/><path d="M687.69 359.638a12.334 12.334 0 01-4.858-.975c-9.357-3.956-9.832-17.467-9.832-20.135 0-.159.006-.318.019-.477l4.667-58.529a6.009 6.009 0 016.458-5.504 6 6 0 015.505 6.458l-4.646 58.26c.07 4.079 1.448 8.431 2.502 8.872.03.015 2.952.564 10.649-6.913a6 6 0 118.361 8.607c-2.87 2.79-10.639 10.336-18.825 10.336z" fill="#039"/><path d="M490.576 406.886c-31.617 0-60.215-8.667-76.305-23.47a6 6 0 118.125-8.833c15.305 14.082 45.913 21.932 77.97 20.007 27.665-1.664 50.621-10.195 61.405-22.82a6.002 6.002 0 018.459-.666 5.999 5.999 0 01.666 8.459c-13.052 15.279-38.496 25.122-69.81 27.006a175.4 175.4 0 01-10.51.317z"/></svg>