<?xml version="1.0" encoding="utf-8"?>
<!-- Generator: Adobe Illustrator 15.0.0, SVG Export Plug-In . SVG Version: 6.00 Build 0)  -->
<!DOCTYPE svg PUBLIC "-//W3C//DTD SVG 1.1//EN" "http://www.w3.org/Graphics/SVG/1.1/DTD/svg11.dtd">
<svg version="1.1" id="レイヤー_1" xmlns="http://www.w3.org/2000/svg" xmlns:xlink="http://www.w3.org/1999/xlink" x="0px"
	 y="0px" width="800px" height="600px" viewBox="0 0 800 600" style="enable-background:new 0 0 800 600;" xml:space="preserve">
<path style="fill:#003399;" d="M135.667,359.667c-2.341,0-4.469-1.361-5.449-3.488L82.885,253.512
	c-1.388-3.009-0.073-6.574,2.937-7.961c3.01-1.387,6.574-0.072,7.961,2.937l41.885,90.848l41.884-90.848
	c1.388-3.009,4.952-4.322,7.961-2.937c3.009,1.387,4.324,4.952,2.937,7.961l-47.333,102.667
	C140.136,358.306,138.008,359.667,135.667,359.667z"/>
<path style="fill:#003399;" d="M210.672,360.231c-2.242,0-4.24-0.241-5.776-0.583c-15.9-3.539-27.107-14.81-27.886-28.046
	c-0.101-1.712-0.158-4.146,0.021-6.988c-0.014-0.137-0.023-0.274-0.028-0.414c-0.021-0.621,0.054-1.224,0.21-1.793
	c0.716-6.99,2.955-15.726,9.104-22.297c5.69-6.081,13.53-9.202,23.303-9.277c8.171-0.052,14.903,2.488,20.031,7.578
	c9.249,9.184,9.349,23.328,9.348,23.925c-0.001,3.234-2.567,5.886-5.8,5.994l-44.259,1.475c0.013,0.421,0.031,0.788,0.049,1.092
	c0.529,8.992,9.968,15.136,18.514,17.038c2.477,0.55,10.334,0.936,13.824-4.347c1.828-2.765,5.55-3.524,8.314-1.698
	c2.765,1.827,3.524,5.55,1.698,8.313C226.115,358.11,217.321,360.231,210.672,360.231z M209.892,303c-0.06,0-0.119,0-0.179,0
	c-6.444,0-11.231,1.758-14.633,5.393c-2.476,2.646-3.979,6.011-4.881,9.406l36.057-1.139C224.881,310.867,220.974,303,209.892,303z"
	/>
<path style="fill:#003399;" d="M266.803,359.744c-1.143,0-2.168-0.12-3.033-0.283c-7.368-1.393-13.014-7.553-14.02-12.462
	c-0.916-4.47,0.005-57.628,0.571-86.089l-7.931-0.071c-3.313-0.03-5.976-2.66-5.946-5.973c0.03-3.295,2.71-5.866,5.999-5.866
	c0.018,0,0.036,0,0.055,0l13.999,0.045c1.604,0.015,3.134,0.63,4.251,1.78c1.117,1.15,1.727,2.68,1.694,4.283
	c-0.65,31.609-1.462,83.115-0.93,89.4c0.519,0.963,2.604,3.01,4.899,3.225c2.671,0.245,5.019-2.446,6.515-4.751
	c1.803-2.78,5.519-3.571,8.299-1.769c2.779,1.805,3.57,5.521,1.766,8.3C277.55,357.896,271.276,359.744,266.803,359.744z"/>
<path style="fill:#003399;" d="M289.621,309.198c-3.119,0-5.752-2.411-5.979-5.571c-0.237-3.305,2.25-6.176,5.556-6.414
	l33.413-2.396c3.309-0.235,6.177,2.25,6.414,5.556c0.237,3.305-2.25,6.177-5.556,6.414l-33.413,2.396
	C289.91,309.193,289.765,309.198,289.621,309.198z"/>
<path style="fill:#003399;" d="M315.037,360.078c-1.568,0-3.084-0.214-4.546-0.643c-7.291-2.139-9.857-8.64-10.125-9.374
	c-0.242-0.66-0.365-1.358-0.365-2.062v-68c0-3.313,2.687-6,6-6s6,2.687,6,6v66.518c0.374,0.521,1.01,1.177,1.953,1.427
	c1.158,0.309,4.589,0.462,11.419-4.723c2.639-2.006,6.403-1.488,8.407,1.15c2.004,2.639,1.489,6.403-1.151,8.406
	C326.231,357.636,320.335,360.078,315.037,360.078z"/>
<path style="fill:#003399;" d="M355,360c-3.313,0-6-2.687-6-6v-41h-4c-3.313,0-6-2.687-6-6s2.687-6,6-6h10c3.313,0,6,2.687,6,6v47
	C361,357.313,358.313,360,355,360z"/>
<path style="fill:#003399;" d="M343.211,292.609c-1.929,0-3.822-0.928-4.981-2.647c-1.852-2.748-1.125-6.477,1.623-8.329
	l21.589-14.55c2.749-1.851,6.477-1.126,8.329,1.623c1.852,2.748,1.125,6.477-1.623,8.329l-21.589,14.55
	C345.53,292.277,344.364,292.609,343.211,292.609z"/>
<path d="M421.334,360C399.645,360,382,342.355,382,320.667s17.645-39.333,39.334-39.333c21.688,0,39.333,17.645,39.333,39.333
	S443.022,360,421.334,360z M421.334,293.333c-15.072,0-27.334,12.262-27.334,27.333S406.262,348,421.334,348
	c15.071,0,27.333-12.262,27.333-27.333S436.405,293.333,421.334,293.333z"/>
<path d="M563.334,360C541.646,360,524,342.355,524,320.667s17.646-39.333,39.334-39.333s39.333,17.645,39.333,39.333
	S585.022,360,563.334,360z M563.334,293.333c-15.072,0-27.334,12.262-27.334,27.333S548.262,348,563.334,348
	c15.071,0,27.333-12.262,27.333-27.333S578.405,293.333,563.334,293.333z"/>
<path d="M485.7,360.201c-1.358,0-2.705-0.088-4.024-0.27c-7.64-1.052-13.559-5.077-16.664-11.335
	c-1.474-2.969-0.262-6.569,2.706-8.042c2.971-1.475,6.569-0.26,8.042,2.706c1.323,2.666,3.864,4.275,7.553,4.783
	c6.15,0.845,13.204-1.813,15.927-4.831c0.456-0.505,0.142-1.489-0.016-1.889c-0.822-2.102-3.37-4.377-7.208-4.723
	c-7.729-0.693-14.965-4.089-18.883-8.861c-2.291-2.79-3.33-5.868-3.006-8.901c0.655-6.151,9.701-14.342,18.614-16.851
	c8.858-2.496,16.872,0.218,22.566,7.634c2.019,2.629,1.523,6.396-1.104,8.413c-2.629,2.019-6.395,1.524-8.413-1.104
	c-2.266-2.951-4.816-4.146-8-3.758c-5.127,0.621-9.894,4.811-11.442,6.91c1.134,1.449,4.878,4.041,10.742,4.567
	c7.866,0.707,14.66,5.535,17.309,12.298c2.021,5.161,1.178,10.509-2.253,14.307C503.202,356.732,494.237,360.201,485.7,360.201z"/>
<path style="fill:#003399;" d="M628.33,360c-3.207,0-5.866-2.535-5.991-5.767c-0.014-0.347-1.329-34.923,0.001-63.9
	c0.886-19.276,4.381-29.869,11.335-34.348c4.307-2.773,9.538-2.961,15.554-0.556c3.076,1.23,4.573,4.723,3.343,7.799
	c-1.23,3.077-4.722,4.573-7.8,3.342c-2.197-0.879-3.745-1.046-4.599-0.498c-1.138,0.733-4.922,4.688-5.845,24.811
	c-1.308,28.475-0.012,62.542,0.001,62.883c0.129,3.312-2.451,6.101-5.762,6.229C628.487,359.999,628.408,360,628.33,360z"/>
<path style="fill:#003399;" d="M652.005,296c-0.102,0-0.202-0.002-0.305-0.007l-40-2c-3.31-0.166-5.858-2.983-5.692-6.292
	c0.165-3.31,2.983-5.84,6.292-5.693l40,2c3.31,0.166,5.858,2.983,5.692,6.292C657.832,293.507,655.181,296,652.005,296z"/>
<path style="fill:#003399;" d="M702.34,311c-0.115,0-0.23-0.003-0.347-0.01l-37.334-2.123c-3.309-0.188-5.838-3.022-5.649-6.331
	s3.021-5.853,6.331-5.649l37.334,2.123c3.309,0.188,5.838,3.022,5.649,6.331C708.143,308.533,705.497,311,702.34,311z"/>
<path style="fill:#003399;" d="M687.69,359.638c-1.615,0.001-3.245-0.293-4.858-0.975c-9.357-3.956-9.832-17.467-9.832-20.135
	c0-0.159,0.006-0.318,0.019-0.477l4.667-58.529c0.265-3.303,3.164-5.764,6.458-5.504c3.304,0.263,5.768,3.155,5.505,6.458
	l-4.646,58.26c0.07,4.079,1.448,8.431,2.502,8.872c0.03,0.015,2.952,0.564,10.649-6.913c2.379-2.31,6.176-2.253,8.484,0.123
	c2.309,2.377,2.254,6.176-0.123,8.484C703.645,352.092,695.876,359.638,687.69,359.638z"/>
<path d="M490.576,406.886c-31.617,0-60.215-8.667-76.305-23.47c-2.439-2.244-2.598-6.04-0.354-8.479
	c2.243-2.44,6.039-2.598,8.479-0.354c15.305,14.082,45.913,21.932,77.97,20.007c27.665-1.664,50.621-10.195,61.405-22.82
	c2.153-2.52,5.94-2.816,8.459-0.666c2.521,2.152,2.818,5.939,0.666,8.459c-13.052,15.279-38.496,25.122-69.81,27.006
	C497.558,406.781,494.046,406.886,490.576,406.886z"/>
</svg>
